# Rhino

mtllib box frame.mtl
g Default
o object_1
usemtl diffuse_0
v 0 0 0
v 0 20 0
v 600 0 0
v 600 20 0
v 600 0 0
v 600 20 0
v 600 0 -510
v 600 20 -510
v 600 0 -510
v 600 20 -510
v 0 0 -510
v 0 20 -510
v 0 0 -510
v 0 20 -510
v 0 0 0
v 0 20 0
v 10 0 -10
v 10 20 -10
v 10 0 -500
v 10 20 -500
v 10 0 -500
v 10 20 -500
v 590 0 -500
v 590 20 -500
v 590 0 -500
v 590 20 -500
v 590 0 -10
v 590 20 -10
v 590 0 -10
v 590 20 -10
v 10 0 -10
v 10 20 -10
v 0 0 0
v 600 0 0
v 600 0 -510
v 0 0 -510
v 10 0 -10
v 10 0 -500
v 590 0 -500
v 590 0 -10
v 0 20 0
v 600 20 0
v 600 20 -510
v 0 20 -510
v 10 20 -10
v 10 20 -500
v 590 20 -500
v 590 20 -10
vt 0 0
vt 0 0.50961512327194214
vt 0.13761468231678009 0
vt 0.13761468231678009 0.50961512327194214
vt 0.13761468231678009 0
vt 0.13761468231678009 0.50961512327194214
vt 0.25458714365959167 0
vt 0.25458714365959167 0.50961512327194214
vt 0.25458714365959167 0
vt 0.25458714365959167 0.50961512327194214
vt 0.39220184087753296 0
vt 0.39220184087753296 0.50961512327194214
vt 0.39220184087753296 0
vt 0.39220184087753296 0.50961512327194214
vt 0.50917428731918335 0
vt 0.50917428731918335 0.50961512327194214
vt 0.50917428731918335 0
vt 0.50917428731918335 0.50961512327194214
vt 0.62155961990356445 0
vt 0.62155961990356445 0.50961512327194214
vt 0.62155961990356445 0
vt 0.62155961990356445 0.50961512327194214
vt 0.75458717346191406 0
vt 0.75458717346191406 0.50961512327194214
vt 0.75458717346191406 0
vt 0.75458717346191406 0.50961512327194214
vt 0.86697250604629517 0
vt 0.86697250604629517 0.50961512327194214
vt 0.86697250604629517 0
vt 0.86697250604629517 0.50961512327194214
vt 1 0
vt 1 0.50961512327194214
vt 0 1
vt 0.13761468231678009 1
vt 0.13761468231678009 0.50961565971374512
vt 0 0.50961565971374512
vt 0.0022935778833925724 0.99038463830947876
vt 0.0022935778833925724 0.51923102140426636
vt 0.13532109558582306 0.51923102140426636
vt 0.13532109558582306 0.99038463830947876
vt 0 0.50961565971374512
vt 0.13761468231678009 0.50961565971374512
vt 0.13761468231678009 1
vt 0 1
vt 0.0022935778833925724 0.51923102140426636
vt 0.0022935778833925724 0.99038463830947876
vt 0.13532109558582306 0.99038463830947876
vt 0.13532109558582306 0.51923102140426636
vn 0 0 1
vn 0 0 1
vn 0 0 1
vn 0 0 1
vn 1 0 0
vn 1 0 0
vn 1 0 0
vn 1 0 0
vn 0 0 -1
vn 0 0 -1
vn 0 0 -1
vn 0 0 -1
vn -1 0 0
vn -1 0 0
vn -1 0 0
vn -1 0 0
vn 1 0 0
vn 1 0 0
vn 1 0 0
vn 1 0 0
vn 0 0 1
vn 0 0 1
vn 0 0 1
vn 0 0 1
vn -1 0 0
vn -1 0 0
vn -1 0 0
vn -1 0 0
vn 0 0 -1
vn 0 0 -1
vn 0 0 -1
vn 0 0 -1
vn 0 -1 0
vn 0 -1 0
vn 0 -1 0
vn 0 -1 0
vn 0 -1 0
vn 0 -1 0
vn 0 -1 0
vn 0 -1 0
vn 0 1 0
vn 0 1 0
vn 0 1 0
vn 0 1 0
vn 0 1 0
vn 0 1 0
vn 0 1 0
vn 0 1 0
f 1/1/1 3/3/3 4/4/4 2/2/2
f 5/5/5 7/7/7 8/8/8 6/6/6
f 9/9/9 11/11/11 12/12/12 10/10/10
f 13/13/13 15/15/15 16/16/16 14/14/14
f 17/17/17 19/19/19 20/20/20 18/18/18
f 21/21/21 23/23/23 24/24/24 22/22/22
f 25/25/25 27/27/27 28/28/28 26/26/26
f 29/29/29 31/31/31 32/32/32 30/30/30
f 38/38/38 37/37/37 33/33/33
f 34/34/34 33/33/33 37/37/37
f 39/39/39 38/38/38 36/36/36
f 33/33/33 36/36/36 38/38/38
f 35/35/35 34/34/34 40/40/40
f 37/37/37 40/40/40 34/34/34
f 36/36/36 35/35/35 39/39/39
f 40/40/40 39/39/39 35/35/35
f 46/46/46 41/41/41 45/45/45
f 42/42/42 45/45/45 41/41/41
f 47/47/47 44/44/44 46/46/46
f 41/41/41 46/46/46 44/44/44
f 43/43/43 48/48/48 42/42/42
f 45/45/45 42/42/42 48/48/48
f 44/44/44 47/47/47 43/43/43
f 48/48/48 43/43/43 47/47/47
o object_2
usemtl diffuse_0
v 0 0 0
v 600 0 0
v 600 0 -510
v 0 0 -510
cstype bspline
deg 1
curv 0 2220 49 50 51 52 49
parm u 0 0 600 1110 1710 2220 2220
end
o object_3
usemtl diffuse_0
v 10.000000000000032 0 -10
v 590 0 -10.000000000000011
v 590 0 -500
v 9.9999999999999858 0 -500
cstype bspline
deg 1
curv 10 2150 53 54 55 56 53
parm u 10 10 589.99999999999989 1080 1660.0000000000002 2150 2150
end
